<svg width="20" height="18" viewBox="0 0 20 18" fill="none" xmlns="http://www.w3.org/2000/svg">
<path fill-rule="evenodd" clip-rule="evenodd" d="M12.9433 6.88517C12.2752 6.88517 11.7324 6.24583 11.7324 5.45894C11.7324 4.67206 12.2752 4.03271 12.9433 4.03271C13.6113 4.03271 14.1541 4.67206 14.1541 5.45894C14.1541 6.24583 13.6113 6.88517 12.9433 6.88517ZM12.9439 2.80322C11.6913 2.80322 10.6475 4.03273 10.6475 5.50814C10.6475 6.98355 11.6495 8.21306 12.9439 8.21306C14.1965 8.21306 15.2404 6.98355 15.2404 5.50814C15.2404 4.03273 14.1965 2.80322 12.9439 2.80322ZM18.7887 12.3047L15.866 9.49157L12.8347 12.403L6.42967 5.31124L1.12695 11.0998V2.01616C1.12695 1.62272 1.37748 1.32764 1.7115 1.32764H18.2042C18.5382 1.32764 18.7887 1.62272 18.7887 2.01616V12.3047ZM18.7895 15.8854C18.7895 16.2788 18.5389 16.5739 18.2049 16.5739H16.6057L13.6621 13.3132L15.8667 11.1641L18.7895 13.9378V15.8854ZM1.7115 16.5738C1.37748 16.5738 1.12695 16.2788 1.12695 15.8853V12.8558L6.42967 7.08203L15.01 16.5738H1.7115ZM18.2463 0H1.75365C0.793319 0 0 0.934426 0 2.06557V15.9344C0 17.0656 0.793319 18 1.75365 18H18.2463C19.2067 18 20 17.0656 20 15.9344V2.06557C20 0.934426 19.2067 0 18.2463 0Z" fill="#2C3E50"/>
</svg>
